<svg xmlns="http://www.w3.org/2000/svg" x="0px" y="0px" width="100" height="100"
  viewBox="0,0,256,256">
  <g fill="#ffffff" fill-rule="nonzero" stroke="none" stroke-width="1" stroke-linecap="butt"
    stroke-linejoin="miter" stroke-miterlimit="10" stroke-dasharray="" stroke-dashoffset="0"
    font-family="none" font-weight="none" font-size="none" text-anchor="none"
    style="mix-blend-mode: normal">
    <g transform="scale(8.53333,8.53333)">
      <path d="M24,4h-18c-1.105,0 -2,0.895 -2,2v18c0,1.105 0.895,2 2,2h18c1.105,0 2,-0.895 2,-2v-18c0,-1.105 -0.895,-2 -2,-2zM22,22h-3v-7.5c0,-1.5 -0.5,-2.5 -2,-2.5c-1.5,0 -2,1 -2,2.5v7.5h-3v-10h3v1.5c0.5,-1 1.5,-2 3,-2c2,0 3,1.5 3,4.5z"></path>
    </g>
  </g>
</svg>
